<svg width="152" height="152" viewBox="0 0 152 152" fill="none" xmlns="http://www.w3.org/2000/svg">
<g filter="url(#filter0_d_24_395)">
<path d="M94.5553 79.9284C99.5218 76.0424 103.147 70.7135 104.926 64.683C106.706 58.6526 106.551 52.2206 104.483 46.2817C102.416 40.3429 98.5383 35.1926 93.3905 31.5474C88.2427 27.9022 82.0804 25.9434 75.761 25.9434C69.4417 25.9434 63.2794 27.9022 58.1316 31.5474C52.9838 35.1926 49.1064 40.3429 47.0388 46.2817C44.9713 52.2206 44.8165 58.6526 46.5958 64.683C48.3752 70.7135 52.0003 76.0424 56.9668 79.9284C48.4566 83.3192 41.0311 88.9432 35.4821 96.2009C29.933 103.458 26.4683 112.078 25.4573 121.14C25.3841 121.801 25.4427 122.471 25.6297 123.11C25.8167 123.749 26.1284 124.345 26.547 124.864C27.3926 125.913 28.6224 126.585 29.9659 126.732C31.3094 126.879 32.6567 126.489 33.7112 125.648C34.7657 124.807 35.4412 123.584 35.589 122.248C36.7014 112.4 41.4232 103.304 48.8524 96.699C56.2817 90.094 65.8974 86.4428 75.8624 86.4428C85.8274 86.4428 95.4431 90.094 102.872 96.699C110.301 103.304 115.023 112.4 116.136 122.248C116.273 123.486 116.867 124.629 117.803 125.457C118.738 126.285 119.949 126.739 121.202 126.732H121.759C123.087 126.58 124.3 125.912 125.136 124.874C125.971 123.836 126.359 122.512 126.217 121.19C125.201 112.102 121.718 103.461 116.14 96.1922C110.562 88.9234 103.101 83.3013 94.5553 79.9284V79.9284ZM75.761 76.3514C71.7533 76.3514 67.8356 75.1695 64.5033 72.9552C61.1711 70.7408 58.5738 67.5935 57.0402 63.9112C55.5065 60.2288 55.1052 56.1769 55.8871 52.2678C56.6689 48.3586 58.5988 44.7679 61.4327 41.9495C64.2666 39.1312 67.8772 37.2119 71.8079 36.4343C75.7386 35.6568 79.8129 36.0558 83.5155 37.5811C87.2181 39.1064 90.3828 41.6893 92.6094 45.0033C94.836 48.3173 96.0244 52.2136 96.0244 56.1993C96.0244 61.544 93.8895 66.6697 90.0894 70.449C86.2893 74.2283 81.1352 76.3514 75.761 76.3514Z" fill="white"/>
</g>
<defs>
<filter id="filter0_d_24_395" x="0.426758" y="0.943359" width="150.819" height="150.819" filterUnits="userSpaceOnUse" color-interpolation-filters="sRGB">
<feFlood flood-opacity="0" result="BackgroundImageFix"/>
<feColorMatrix in="SourceAlpha" type="matrix" values="0 0 0 0 0 0 0 0 0 0 0 0 0 0 0 0 0 0 127 0" result="hardAlpha"/>
<feOffset/>
<feGaussianBlur stdDeviation="12.5"/>
<feComposite in2="hardAlpha" operator="out"/>
<feColorMatrix type="matrix" values="0 0 0 0 0.191667 0 0 0 0 0.612 0 0 0 0 1 0 0 0 0.67 0"/>
<feBlend mode="normal" in2="BackgroundImageFix" result="effect1_dropShadow_24_395"/>
<feBlend mode="normal" in="SourceGraphic" in2="effect1_dropShadow_24_395" result="shape"/>
</filter>
</defs>
</svg>
