<svg width="67" height="61" viewBox="0 0 67 61" fill="none" xmlns="http://www.w3.org/2000/svg">
<g filter="url(#filter0_d_24_173)">
<path d="M42.8212 21.2371C41.0099 20.3791 39.0732 19.7555 37.0484 19.4004C36.7998 19.8556 36.5093 20.4679 36.309 20.9549C34.1566 20.6272 32.024 20.6272 29.9112 20.9549C29.7109 20.4679 29.4138 19.8556 29.1629 19.4004C27.136 19.7555 25.1971 20.3814 23.3858 21.2417C19.7324 26.8315 18.742 32.2824 19.2372 37.656C21.6603 39.4881 24.0086 40.6011 26.3173 41.3294C26.8873 40.5351 27.3957 39.6907 27.8336 38.8008C26.9995 38.4799 26.2006 38.0839 25.4458 37.6241C25.646 37.4739 25.8419 37.3168 26.0312 37.1552C30.6353 39.3356 35.6377 39.3356 40.1868 37.1552C40.3783 37.3168 40.5741 37.4739 40.7722 37.6241C40.0151 38.0861 39.2141 38.4821 38.38 38.8031C38.8179 39.6907 39.3241 40.5374 39.8963 41.3316C42.2072 40.6033 44.5576 39.4904 46.9807 37.656C47.5618 31.4266 45.9882 26.0258 42.8212 21.2371ZM28.4609 34.3513C27.0787 34.3513 25.9453 33.0448 25.9453 31.4539C25.9453 29.863 27.0545 28.5544 28.4609 28.5544C29.8672 28.5544 31.0006 29.8608 30.9764 31.4539C30.9786 33.0448 29.8672 34.3513 28.4609 34.3513ZM37.7571 34.3513C36.375 34.3513 35.2416 33.0448 35.2416 31.4539C35.2416 29.863 36.3508 28.5544 37.7571 28.5544C39.1634 28.5544 40.2969 29.8608 40.2727 31.4539C40.2727 33.0448 39.1634 34.3513 37.7571 34.3513Z" fill="white"/>
</g>
<defs>
<filter id="filter0_d_24_173" x="0.212158" y="0.494141" width="65.7937" height="59.7437" filterUnits="userSpaceOnUse" color-interpolation-filters="sRGB">
<feFlood flood-opacity="0" result="BackgroundImageFix"/>
<feColorMatrix in="SourceAlpha" type="matrix" values="0 0 0 0 0 0 0 0 0 0 0 0 0 0 0 0 0 0 127 0" result="hardAlpha"/>
<feOffset/>
<feGaussianBlur stdDeviation="9.45312"/>
<feComposite in2="hardAlpha" operator="out"/>
<feColorMatrix type="matrix" values="0 0 0 0 0.191667 0 0 0 0 0.612 0 0 0 0 1 0 0 0 0.67 0"/>
<feBlend mode="normal" in2="BackgroundImageFix" result="effect1_dropShadow_24_173"/>
<feBlend mode="normal" in="SourceGraphic" in2="effect1_dropShadow_24_173" result="shape"/>
</filter>
</defs>
</svg>
