<svg width="165" height="140" viewBox="0 0 165 140" fill="none" xmlns="http://www.w3.org/2000/svg">
<g filter="url(#filter0_d_24_61)">
<path d="M122.217 33.3632C114.821 29.8968 106.912 27.3776 98.6441 25.9431C97.6287 27.7821 96.4423 30.2555 95.6244 32.2231C86.8352 30.899 78.1268 30.899 69.4992 32.2231C68.6814 30.2555 67.4681 27.7821 66.4436 25.9431C58.1666 27.3776 50.249 29.9061 42.8526 33.3816C27.9341 55.9633 23.89 77.9842 25.9121 99.6924C35.8068 107.094 45.396 111.59 54.8233 114.532C57.151 111.323 59.2269 107.912 61.0153 104.317C57.6093 103.021 54.347 101.421 51.2645 99.5637C52.0823 98.9569 52.8822 98.3224 53.655 97.6695C72.4558 106.478 92.8834 106.478 111.46 97.6695C112.242 98.3224 113.041 98.9569 113.85 99.5637C110.759 101.43 107.487 103.03 104.081 104.327C105.87 107.912 107.937 111.333 110.273 114.541C119.71 111.599 129.308 107.103 139.203 99.6924C141.575 74.5271 135.149 52.7084 122.217 33.3632ZM63.5767 86.342C57.9329 86.342 53.3045 81.0643 53.3045 74.6373C53.3045 68.2104 57.834 62.9236 63.5767 62.9236C69.3195 62.9236 73.9477 68.2011 73.8489 74.6373C73.8578 81.0643 69.3195 86.342 63.5767 86.342ZM101.538 86.342C95.8941 86.342 91.2657 81.0643 91.2657 74.6373C91.2657 68.2104 95.7951 62.9236 101.538 62.9236C107.281 62.9236 111.909 68.2011 111.81 74.6373C111.81 81.0643 107.281 86.342 101.538 86.342Z" fill="white"/>
</g>
<defs>
<filter id="filter0_d_24_61" x="0.426842" y="0.943115" width="164.261" height="138.598" filterUnits="userSpaceOnUse" color-interpolation-filters="sRGB">
<feFlood flood-opacity="0" result="BackgroundImageFix"/>
<feColorMatrix in="SourceAlpha" type="matrix" values="0 0 0 0 0 0 0 0 0 0 0 0 0 0 0 0 0 0 127 0" result="hardAlpha"/>
<feOffset/>
<feGaussianBlur stdDeviation="12.5"/>
<feComposite in2="hardAlpha" operator="out"/>
<feColorMatrix type="matrix" values="0 0 0 0 0.191667 0 0 0 0 0.612 0 0 0 0 1 0 0 0 0.67 0"/>
<feBlend mode="normal" in2="BackgroundImageFix" result="effect1_dropShadow_24_61"/>
<feBlend mode="normal" in="SourceGraphic" in2="effect1_dropShadow_24_61" result="shape"/>
</filter>
</defs>
</svg>
