<svg width="152" height="152" viewBox="0 0 152 152" fill="none" xmlns="http://www.w3.org/2000/svg">
<g filter="url(#filter0_d_24_386)">
<path d="M78.4099 91.8986H73.2684L70.6545 82.6092L56.8718 78.1121L57.0879 87.0608L66.1395 97.8038L69.6175 94.556L72.2531 126.762L48.6627 99.0076L52.8537 85.7889L50.607 57.353L55.5973 55.1271C59.5722 71.3211 71.389 77.0219 71.389 77.0219L75.8392 70.458L80.2894 77.0219C80.2894 77.0219 92.1061 71.3211 96.0811 55.1271L101.071 57.353L98.8246 85.7889L103.016 99.0076L79.4252 126.762L82.0608 94.556L85.5389 97.8038L94.5905 87.0608L94.8065 78.1121L81.0239 82.6092L78.4099 91.8986ZM105.586 106.616L89.4274 124.037L101.698 117.677L103.016 123.128L114.163 114.952L105.586 106.616ZM46.092 106.616L62.2509 124.037L49.9805 117.677L48.6627 123.128L37.5156 114.952L46.092 106.616ZM103.664 79.8837L125.526 66.6424C129.846 23.8748 113.947 21.0812 98.4142 30.1662C98.4142 30.1662 123.063 23.8748 112.694 55.0136L104.96 58.3523L103.664 79.8837ZM48.0146 79.8837L26.1439 66.6424C21.8319 23.8748 37.7338 21.0812 53.2641 30.1662C53.2641 30.1662 28.6066 23.8748 38.9803 55.0136L46.7185 58.3523L48.0146 79.8837ZM75.8392 45.4289L90.4211 54.9227C90.4211 54.9227 89.7298 62.8721 81.2615 69.6177L75.8392 57.8753L70.4168 69.6177C61.9485 62.8721 61.2572 54.9227 61.2572 54.9227L75.8392 45.4289Z" fill="white"/>
</g>
<defs>
<filter id="filter0_d_24_386" x="0.426758" y="0.943359" width="150.819" height="150.819" filterUnits="userSpaceOnUse" color-interpolation-filters="sRGB">
<feFlood flood-opacity="0" result="BackgroundImageFix"/>
<feColorMatrix in="SourceAlpha" type="matrix" values="0 0 0 0 0 0 0 0 0 0 0 0 0 0 0 0 0 0 127 0" result="hardAlpha"/>
<feOffset/>
<feGaussianBlur stdDeviation="12.5"/>
<feComposite in2="hardAlpha" operator="out"/>
<feColorMatrix type="matrix" values="0 0 0 0 0.191667 0 0 0 0 0.612 0 0 0 0 1 0 0 0 0.67 0"/>
<feBlend mode="normal" in2="BackgroundImageFix" result="effect1_dropShadow_24_386"/>
<feBlend mode="normal" in="SourceGraphic" in2="effect1_dropShadow_24_386" result="shape"/>
</filter>
</defs>
</svg>
