<svg width="152" height="152" viewBox="0 0 152 152" fill="none" xmlns="http://www.w3.org/2000/svg">
<g filter="url(#filter0_d_24_390)">
<path d="M33.6378 25.9434C32.4612 25.9434 31.1973 30.979 29.8879 35.3533L39.022 57.483L27.9397 42.2011C27.1077 45.3444 26.4034 48.4737 25.9527 51.5752L38.2053 64.3411L25.4811 56.2703C25.3576 58.6987 25.4385 61.1044 25.787 63.4804L38.7033 71.5014L27.0995 68.5897C27.8254 70.5678 28.7851 72.5517 29.8839 74.5181L41.4676 80.4232L32.9357 79.4782C36.8604 85.3857 41.399 90.9229 43.9172 95.3694C44.6451 96.4938 46.194 99.0414 47.0178 101.543C48.1218 104.983 45.7326 109.42 40.9815 109.942C44.4678 106.81 44.7402 104.79 44.1088 102.811C40.351 102.769 38.6852 106.3 38.6852 106.3C38.6852 106.3 35.1302 111.444 43.1454 119.312C51.1605 127.179 62.2087 126.758 62.2087 126.758C62.2087 126.758 61.5722 114.694 61.9147 109.233C62.2609 103.717 64.2854 93.9439 64.2854 93.9439C64.2854 93.9439 58.6103 93.9643 52.2408 90.481C44.2476 86.1103 47.2718 83.3314 45.2419 79.2864C41.1506 71.133 43.9138 58.4338 43.9138 58.4338C43.9138 58.4338 40.8325 49.0993 38.8483 42.4733C37.2032 36.9821 34.517 25.9434 33.6378 25.9434ZM118.035 25.9434C117.155 25.9434 114.469 36.9821 112.824 42.4733C110.84 49.0993 107.758 58.4338 107.758 58.4338C107.758 58.4338 110.522 71.133 106.43 79.2864C104.401 83.3314 107.425 86.1103 99.4315 90.4812C93.062 93.9643 87.387 93.9441 87.387 93.9441C87.387 93.9441 89.4115 103.717 89.7577 109.233C90.1002 114.694 89.4637 126.758 89.4637 126.758C89.4637 126.758 100.512 127.179 108.527 119.312C116.542 111.444 112.987 106.299 112.987 106.299C112.987 106.299 111.321 102.769 107.564 102.811C106.932 104.79 107.205 106.81 110.691 109.943C105.94 109.42 103.551 104.983 104.655 101.543C105.478 99.0414 107.027 96.494 107.755 95.3694C110.273 90.9229 114.812 85.3857 118.737 79.4782L110.205 80.4232L121.788 74.5181C122.887 72.5517 123.847 70.5678 124.573 68.5897L112.969 71.5014L125.885 63.4804C126.234 61.1046 126.315 58.6987 126.191 56.2703L113.467 64.3411L125.72 51.5752C125.269 48.474 124.565 45.3444 123.733 42.2011L112.65 57.483L121.784 35.3537C120.475 30.9795 119.211 25.9434 118.035 25.9434ZM75.8356 26.0448C70.3336 26.0448 57.6452 35.9957 50.7652 42.6423C48.7739 44.5664 46.2828 49.1786 46.2828 49.1786L48.8919 57.3513C48.8919 57.3513 48.5645 59.2037 48.153 64.0338C47.8434 67.6701 47.8539 71.2233 47.8539 71.2233L62.8026 67.5208C63.9386 62.5796 66.0678 56.1049 68.5481 50.5986C70.5366 46.1843 75.8356 37.7606 75.8356 37.7606C75.8356 37.7606 81.2842 45.7944 83.2344 50.0577C85.821 55.7125 87.7201 62.6561 88.8691 67.5208L103.818 71.2233C103.818 71.2233 103.828 67.6701 103.519 64.0338C103.107 59.2037 102.78 57.3513 102.78 57.3513L105.389 49.1784C105.389 49.1784 103.661 44.9328 101.974 43.1843C95.1356 36.0976 81.3376 26.0448 75.8356 26.0448ZM75.8362 42.9408C75.8362 42.9408 72.7943 49.117 71.4745 54.0521C70.2545 58.6148 68.098 68.6566 68.098 68.6566C68.098 68.6566 71.4986 71.2709 69.7105 72.6578C67.9224 74.0447 64.874 71.4074 64.874 71.4074L48.8587 75.1614L49.8057 78.0582L64.874 82.4096C64.874 82.4096 67.8979 79.7537 69.7105 81.1597C71.5233 82.5654 68.098 86.4108 68.098 86.4108C68.098 86.4108 69.1988 89.9307 69.7993 91.6808C70.7783 94.5348 72.9002 100.208 72.9002 100.208L75.8356 100.837L78.7716 100.208C78.7716 100.208 80.7013 94.9037 81.6228 92.2423C82.2942 90.3026 83.5738 86.4108 83.5738 86.4108C83.5738 86.4108 80.1485 82.5654 81.9613 81.1594C83.7741 79.7537 86.7978 82.4096 86.7978 82.4096L101.866 78.0582L102.813 75.1614L86.7978 71.4074C86.7978 71.4074 83.7494 74.0447 81.9613 72.6578C80.1732 71.2709 83.5738 68.6566 83.5738 68.6566C83.5738 68.6566 81.4321 59.3821 80.1976 54.2329C78.9918 49.2021 75.8362 42.9405 75.8362 42.9405V42.9408ZM75.8362 72.8289C77.2608 72.8289 78.4152 74.62 78.4152 76.8297C78.4152 79.0392 77.2608 80.8309 75.8362 80.8309C74.4116 80.8309 73.2566 79.0392 73.2566 76.8297C73.2566 74.62 74.4116 72.8289 75.8362 72.8289Z" fill="white"/>
</g>
<defs>
<filter id="filter0_d_24_390" x="0.426758" y="0.943359" width="150.819" height="150.819" filterUnits="userSpaceOnUse" color-interpolation-filters="sRGB">
<feFlood flood-opacity="0" result="BackgroundImageFix"/>
<feColorMatrix in="SourceAlpha" type="matrix" values="0 0 0 0 0 0 0 0 0 0 0 0 0 0 0 0 0 0 127 0" result="hardAlpha"/>
<feOffset/>
<feGaussianBlur stdDeviation="12.5"/>
<feComposite in2="hardAlpha" operator="out"/>
<feColorMatrix type="matrix" values="0 0 0 0 0.191667 0 0 0 0 0.612 0 0 0 0 1 0 0 0 0.67 0"/>
<feBlend mode="normal" in2="BackgroundImageFix" result="effect1_dropShadow_24_390"/>
<feBlend mode="normal" in="SourceGraphic" in2="effect1_dropShadow_24_390" result="shape"/>
</filter>
</defs>
</svg>
