<svg width="67" height="66" viewBox="0 0 67 66" fill="none" xmlns="http://www.w3.org/2000/svg">
<g filter="url(#filter0_d_24_175)">
<path d="M33.4094 19.1316C29.6096 19.1316 29.1331 19.1477 27.6407 19.2157C26.1515 19.2836 25.1344 19.5199 24.2444 19.8653C23.3244 20.2225 22.5441 20.7004 21.7663 21.4774C20.9885 22.2544 20.51 23.034 20.1525 23.9531C19.8066 24.8421 19.5701 25.8581 19.5021 27.3458C19.434 28.8366 19.418 29.3126 19.418 33.1085C19.418 36.9043 19.434 37.3803 19.5021 38.8711C19.5701 40.3587 19.8066 41.3748 20.1525 42.2638C20.5101 43.1829 20.9885 43.9623 21.7663 44.7394C22.5442 45.5164 23.3244 45.9944 24.2444 46.3515C25.1344 46.697 26.1515 46.9333 27.6407 47.0012C29.1331 47.0692 29.6096 47.0853 33.4094 47.0853C37.2092 47.0853 37.6857 47.0692 39.178 47.0012C40.6673 46.9333 41.6843 46.697 42.5743 46.3515C43.4943 45.9944 44.2746 45.5164 45.0525 44.7394C45.8303 43.9623 46.3087 43.1829 46.6663 42.2638C47.0121 41.3748 47.2487 40.3587 47.3166 38.8711C47.3847 37.3803 47.4008 36.9043 47.4008 33.1085C47.4008 29.3126 47.3847 28.8366 47.3166 27.3458C47.2487 25.8581 47.0121 24.8421 46.6663 23.9531C46.3087 23.034 45.8303 22.2544 45.0525 21.4774C44.2746 20.7004 43.4943 20.2225 42.5743 19.8653C41.6843 19.5199 40.6673 19.2836 39.178 19.2157C37.6857 19.1477 37.2092 19.1316 33.4094 19.1316ZM33.4094 21.6499C37.1452 21.6499 37.5878 21.6642 39.0631 21.7314C40.4273 21.7936 41.1681 22.0213 41.6611 22.2127C42.3142 22.4662 42.7803 22.7691 43.2699 23.2582C43.7595 23.7473 44.0627 24.2129 44.3165 24.8653C44.5081 25.3578 44.736 26.0979 44.7982 27.4606C44.8656 28.9344 44.8798 29.3765 44.8798 33.1084C44.8798 36.8404 44.8656 37.2825 44.7982 38.7563C44.736 40.119 44.5081 40.8591 44.3165 41.3515C44.0627 42.004 43.7595 42.4696 43.2699 42.9586C42.7803 43.4478 42.3142 43.7506 41.6611 44.0042C41.1681 44.1956 40.4272 44.4233 39.0631 44.4854C37.588 44.5527 37.1455 44.5669 33.4094 44.5669C29.6732 44.5669 29.2308 44.5527 27.7557 44.4854C26.3915 44.4233 25.6507 44.1956 25.1577 44.0042C24.5045 43.7506 24.0385 43.4478 23.5489 42.9586C23.0593 42.4696 22.7561 42.004 22.5023 41.3516C22.3106 40.8591 22.0828 40.119 22.0205 38.7563C21.9532 37.2825 21.9389 36.8404 21.9389 33.1084C21.9389 29.3765 21.9532 28.9344 22.0205 27.4606C22.0828 26.0978 22.3106 25.3578 22.5023 24.8653C22.7561 24.2129 23.0593 23.7473 23.5489 23.2582C24.0385 22.7691 24.5046 22.4662 25.1576 22.2127C25.6507 22.0213 26.3915 21.7936 27.7557 21.7314C29.231 21.6642 29.6735 21.6499 33.4094 21.6499" fill="white"/>
</g>
<g filter="url(#filter1_d_24_175)">
<path d="M33.4089 37.7673C30.8331 37.7673 28.7451 35.6814 28.7451 33.1084C28.7451 30.5352 30.8331 28.4494 33.4089 28.4494C35.9847 28.4494 38.0727 30.5352 38.0727 33.1084C38.0727 35.6814 35.9847 37.7673 33.4089 37.7673ZM33.4089 25.931C29.4408 25.931 26.2241 29.1444 26.2241 33.1084C26.2241 37.0723 29.4408 40.2856 33.4089 40.2856C37.377 40.2856 40.5937 37.0723 40.5937 33.1084C40.5937 29.1444 37.377 25.931 33.4089 25.931M42.5565 25.6475C42.5565 26.5738 41.8048 27.3247 40.8775 27.3247C39.9503 27.3247 39.1986 26.5738 39.1986 25.6475C39.1986 24.7212 39.9503 23.9702 40.8775 23.9702C41.8048 23.9702 42.5565 24.7212 42.5565 25.6475" fill="white"/>
</g>
<defs>
<filter id="filter0_d_24_175" x="0.511719" y="0.225342" width="65.7954" height="65.7661" filterUnits="userSpaceOnUse" color-interpolation-filters="sRGB">
<feFlood flood-opacity="0" result="BackgroundImageFix"/>
<feColorMatrix in="SourceAlpha" type="matrix" values="0 0 0 0 0 0 0 0 0 0 0 0 0 0 0 0 0 0 127 0" result="hardAlpha"/>
<feOffset/>
<feGaussianBlur stdDeviation="9.45312"/>
<feComposite in2="hardAlpha" operator="out"/>
<feColorMatrix type="matrix" values="0 0 0 0 0.191667 0 0 0 0 0.612 0 0 0 0 1 0 0 0 0.67 0"/>
<feBlend mode="normal" in2="BackgroundImageFix" result="effect1_dropShadow_24_175"/>
<feBlend mode="normal" in="SourceGraphic" in2="effect1_dropShadow_24_175" result="shape"/>
</filter>
<filter id="filter1_d_24_175" x="7.31787" y="5.06396" width="54.145" height="54.1279" filterUnits="userSpaceOnUse" color-interpolation-filters="sRGB">
<feFlood flood-opacity="0" result="BackgroundImageFix"/>
<feColorMatrix in="SourceAlpha" type="matrix" values="0 0 0 0 0 0 0 0 0 0 0 0 0 0 0 0 0 0 127 0" result="hardAlpha"/>
<feOffset/>
<feGaussianBlur stdDeviation="9.45312"/>
<feComposite in2="hardAlpha" operator="out"/>
<feColorMatrix type="matrix" values="0 0 0 0 0.191667 0 0 0 0 0.612 0 0 0 0 1 0 0 0 0.67 0"/>
<feBlend mode="normal" in2="BackgroundImageFix" result="effect1_dropShadow_24_175"/>
<feBlend mode="normal" in="SourceGraphic" in2="effect1_dropShadow_24_175" result="shape"/>
</filter>
</defs>
</svg>
