<svg width="110" height="114" viewBox="0 0 110 114" fill="none" xmlns="http://www.w3.org/2000/svg">
<g filter="url(#filter0_d_24_10)">
<path d="M71.4486 16.3569L67.7633 16.3889H64.208H61.4421V23.1238V91.4527V98.1874H71.4437L74.5848 98.1871C85.2402 98.1871 93.9493 88.6763 93.9921 77.333H93.993V77.2674C93.993 77.2613 93.9932 77.2552 93.9932 77.2491V73.9025H93.993V71.1068V40.6415H93.9981V37.295C93.9981 25.9146 85.2714 16.3569 74.5897 16.3569L71.4486 16.3569ZM35.14 16.3572C24.4846 16.3572 15.7755 25.868 15.7327 37.2113H15.7318V37.2769C15.7318 37.283 15.7316 37.2891 15.7316 37.2952V40.6418H15.7318V43.4375V73.9028H15.7267V77.2494C15.7267 88.6297 24.4534 98.1873 35.1351 98.1873H38.2762H53.2978V91.4527V23.1238V16.3889H50.5319H46.9767H38.2811V16.3572L35.14 16.3572ZM35.3844 23.1155V23.1238H38.2809L38.2811 34.06V23.1238H46.9767V29.019V91.4527H38.2762V73.9028L38.276 91.4527H35.6026C25.5372 90.4733 22.4605 84.2121 22.053 75.6445V73.9027H38.2762L22.053 73.9023V40.6425L27.9261 40.6423C27.9178 40.7619 27.9122 40.8818 27.9092 41.0017C27.9092 43.0471 28.6719 45.0087 30.0294 46.455C31.387 47.9013 33.2282 48.7138 35.148 48.7138C37.0678 48.7137 38.9089 47.9012 40.2664 46.4549C41.6239 45.0086 42.3866 43.0471 42.3866 41.0017C42.3847 39.5503 41.9984 38.129 41.2722 36.901C40.5459 35.6731 39.5092 34.6884 38.2811 34.0602C38.2811 34.0601 38.2811 34.06 38.2811 34.06C37.3042 33.5561 36.2334 33.2928 35.148 33.2894C33.2882 33.2919 31.5006 34.0569 30.156 35.4258C28.8114 36.7947 28.0129 38.6625 27.9261 40.6418H22.053V39.0242C22.434 30.4575 25.4499 24.1709 35.3844 23.1155L35.3844 23.1155ZM76.7274 53.1214C81.0535 53.1214 84.5051 56.7988 84.5051 61.4078C84.5051 66.0168 81.0535 69.6942 76.7274 69.6942C72.4014 69.6942 68.9497 66.0168 68.9497 61.4078C68.9497 56.7988 72.4014 53.1214 76.7274 53.1214Z" fill="white"/>
</g>
<defs>
<filter id="filter0_d_24_10" x="0.196638" y="0.826887" width="109.332" height="112.891" filterUnits="userSpaceOnUse" color-interpolation-filters="sRGB">
<feFlood flood-opacity="0" result="BackgroundImageFix"/>
<feColorMatrix in="SourceAlpha" type="matrix" values="0 0 0 0 0 0 0 0 0 0 0 0 0 0 0 0 0 0 127 0" result="hardAlpha"/>
<feOffset/>
<feGaussianBlur stdDeviation="7.76502"/>
<feComposite in2="hardAlpha" operator="out"/>
<feColorMatrix type="matrix" values="0 0 0 0 0.191667 0 0 0 0 0.612 0 0 0 0 1 0 0 0 0.67 0"/>
<feBlend mode="normal" in2="BackgroundImageFix" result="effect1_dropShadow_24_10"/>
<feBlend mode="normal" in="SourceGraphic" in2="effect1_dropShadow_24_10" result="shape"/>
</filter>
</defs>
</svg>
