<svg width="100" height="105" viewBox="0 0 100 105" fill="none" xmlns="http://www.w3.org/2000/svg">
<g filter="url(#filter0_d_24_24)">
<path d="M17.0793 69.4268C14.5183 71.7752 15.372 76.2372 20.8354 78.3508C26.4695 80.9341 32.6158 81.6386 38.5914 80.2296C38.9329 80.2296 39.2743 79.9947 39.445 79.9947V72.01L33.6402 74.5933C31.4207 75.5327 29.2012 75.7675 26.9817 75.063C25.2744 74.3585 25.6158 72.9494 27.6646 71.7752L39.445 66.139V57.4497L23.0549 65.1996C21.0061 66.1389 18.9573 67.548 17.0793 69.4268ZM56.6889 34.2002V56.98C63.6888 61.6769 69.1522 56.98 69.1522 44.7682C69.1522 32.3214 65.9083 26.6852 56.5181 22.2231C51.5669 19.8747 46.445 17.7611 41.3231 16.3521V84.2219L53.2743 89.1536V32.0866C53.2743 29.5033 53.2743 27.6246 54.6401 28.3291C56.5181 29.0336 56.6889 31.6169 56.6889 34.2002ZM78.8839 64.0254C73.9327 61.6769 68.64 60.7375 63.5181 61.4421C60.7864 61.6769 58.2254 62.6163 55.8352 63.7905L55.323 64.0254V73.1843L66.4205 67.548C68.64 66.6086 70.8595 66.3738 73.079 67.0783C74.7863 67.7829 74.4449 69.1919 72.3961 70.3661L55.323 79.0554V87.9794L78.8839 76.0024C80.5912 75.063 82.1278 73.8888 83.4936 72.01C84.6887 69.6616 84.1765 66.3738 78.8839 64.0254Z" fill="white"/>
</g>
<defs>
<filter id="filter0_d_24_24" x="0.166243" y="0.822004" width="99.3924" height="103.862" filterUnits="userSpaceOnUse" color-interpolation-filters="sRGB">
<feFlood flood-opacity="0" result="BackgroundImageFix"/>
<feColorMatrix in="SourceAlpha" type="matrix" values="0 0 0 0 0 0 0 0 0 0 0 0 0 0 0 0 0 0 127 0" result="hardAlpha"/>
<feOffset/>
<feGaussianBlur stdDeviation="7.76502"/>
<feComposite in2="hardAlpha" operator="out"/>
<feColorMatrix type="matrix" values="0 0 0 0 0.191667 0 0 0 0 0.612 0 0 0 0 1 0 0 0 0.67 0"/>
<feBlend mode="normal" in2="BackgroundImageFix" result="effect1_dropShadow_24_24"/>
<feBlend mode="normal" in="SourceGraphic" in2="effect1_dropShadow_24_24" result="shape"/>
</filter>
</defs>
</svg>
