<svg width="100" height="105" viewBox="0 0 100 105" fill="none" xmlns="http://www.w3.org/2000/svg">
<g filter="url(#filter0_d_24_31)">
<path d="M49.8032 15.7275C31.8237 15.7275 17.0949 30.6062 15.6962 49.5129L34.0401 57.6528C35.594 56.5109 37.4729 55.8456 39.4923 55.8456C39.6745 55.8456 39.8543 55.8509 40.0316 55.8614L48.1902 43.1696V42.9915C48.1902 35.3545 53.9797 29.1395 61.0966 29.1395C68.2136 29.1395 74.0031 35.3545 74.0031 42.9915C74.0031 50.6286 68.2136 56.8461 61.0966 56.8461C60.9981 56.8461 60.9021 56.8435 60.8036 56.8409L49.1678 65.7481C49.1752 65.9131 49.1801 66.0781 49.1801 66.2405C49.1801 71.9762 44.8336 76.6406 39.4923 76.6406C34.8035 76.6406 30.8806 73.0473 29.994 68.2912L16.8733 62.4691C20.9366 77.8873 34.1361 89.191 49.8032 89.191C68.7061 89.191 84.0284 72.7435 84.0284 52.4593C84.0284 32.1723 68.7061 15.7275 49.8032 15.7275ZM37.1439 71.4618L32.9403 69.5971C33.684 71.2627 34.9744 72.6561 36.6859 73.4208C40.3847 75.076 44.6499 73.193 46.1915 69.2199C46.9377 67.2976 46.9426 65.1762 46.2038 63.2486C45.4651 61.321 44.0688 59.8176 42.2785 59.0162C40.498 58.2227 38.5919 58.2515 36.9174 58.9298L41.2614 60.8574C43.99 62.0779 45.2804 65.4407 44.1426 68.3687C43.0074 71.2968 39.8725 72.6823 37.1439 71.4618ZM69.697 42.9918C69.697 37.903 65.8381 33.7597 61.0976 33.7597C56.3547 33.7597 52.4958 37.903 52.4958 42.9918C52.4958 48.0805 56.3547 52.2212 61.0976 52.2212C65.8381 52.2212 69.697 48.0805 69.697 42.9918ZM54.6506 42.9761C54.6506 39.1471 57.5441 36.0435 61.1099 36.0435C64.6783 36.0435 67.5718 39.1471 67.5718 42.9761C67.5718 46.8051 64.6783 49.9086 61.1099 49.9086C57.5441 49.9086 54.6506 46.8051 54.6506 42.9761Z" fill="white" style="mix-blend-mode:lighten" shape-rendering="crispEdges"/>
</g>
<defs>
<filter id="filter0_d_24_31" x="0.166121" y="0.197493" width="99.3922" height="104.523" filterUnits="userSpaceOnUse" color-interpolation-filters="sRGB">
<feFlood flood-opacity="0" result="BackgroundImageFix"/>
<feColorMatrix in="SourceAlpha" type="matrix" values="0 0 0 0 0 0 0 0 0 0 0 0 0 0 0 0 0 0 127 0" result="hardAlpha"/>
<feOffset/>
<feGaussianBlur stdDeviation="7.76502"/>
<feComposite in2="hardAlpha" operator="out"/>
<feColorMatrix type="matrix" values="0 0 0 0 0.191667 0 0 0 0 0.612 0 0 0 0 1 0 0 0 0.67 0"/>
<feBlend mode="normal" in2="BackgroundImageFix" result="effect1_dropShadow_24_31"/>
<feBlend mode="normal" in="SourceGraphic" in2="effect1_dropShadow_24_31" result="shape"/>
</filter>
</defs>
</svg>
