<svg width="66" height="61" viewBox="0 0 66 61" fill="none" xmlns="http://www.w3.org/2000/svg">
<g filter="url(#filter0_d_24_170)">
<path d="M45.6697 21.9667C45.242 22.1559 44.8023 22.3156 44.353 22.4453C44.885 21.8451 45.2905 21.139 45.5381 20.3662C45.5936 20.193 45.5361 20.0034 45.3934 19.8901C45.2508 19.7768 45.0528 19.7632 44.8959 19.856C43.9417 20.4206 42.9122 20.8263 41.8328 21.0635C40.7455 20.0036 39.2686 19.4004 37.7419 19.4004C34.5193 19.4004 31.8975 22.0159 31.8975 25.2308C31.8975 25.484 31.9135 25.7358 31.9453 25.9841C27.9463 25.6338 24.2285 23.6729 21.6756 20.5487C21.5846 20.4374 21.4444 20.3774 21.3009 20.3888C21.1573 20.4001 21.0283 20.4808 20.9558 20.605C20.438 21.4914 20.1642 22.5051 20.1642 23.5366C20.1642 24.9415 20.667 26.2744 21.5551 27.316C21.2851 27.2227 21.023 27.106 20.7729 26.9675C20.6386 26.893 20.4748 26.8941 20.3414 26.9704C20.2079 27.0467 20.1242 27.1871 20.1207 27.3405C20.12 27.3663 20.12 27.3922 20.12 27.4184C20.12 29.5154 21.2514 31.4034 22.981 32.4324C22.8324 32.4176 22.6839 32.3961 22.5364 32.368C22.3843 32.339 22.2279 32.3922 22.1253 32.5079C22.0225 32.6236 21.9886 32.7848 22.0359 32.932C22.6761 34.926 24.3244 36.3928 26.3171 36.84C24.6644 37.8726 22.7744 38.4136 20.7903 38.4136C20.3763 38.4136 19.9599 38.3893 19.5524 38.3412C19.35 38.3172 19.1565 38.4364 19.0875 38.6285C19.0186 38.8206 19.0916 39.0348 19.2639 39.145C21.8127 40.7754 24.76 41.6371 27.7868 41.6371C33.7371 41.6371 37.4594 38.8379 39.5342 36.4896C42.1215 33.5615 43.6053 29.6857 43.6053 25.8562C43.6053 25.6963 43.6028 25.5347 43.5979 25.3737C44.6187 24.6064 45.4975 23.6779 46.2127 22.6107C46.3213 22.4486 46.3095 22.2344 46.1837 22.0852C46.058 21.9359 45.8486 21.8876 45.6697 21.9667Z" fill="white"/>
</g>
<defs>
<filter id="filter0_d_24_170" x="0.155518" y="0.494141" width="65.0376" height="60.0493" filterUnits="userSpaceOnUse" color-interpolation-filters="sRGB">
<feFlood flood-opacity="0" result="BackgroundImageFix"/>
<feColorMatrix in="SourceAlpha" type="matrix" values="0 0 0 0 0 0 0 0 0 0 0 0 0 0 0 0 0 0 127 0" result="hardAlpha"/>
<feOffset/>
<feGaussianBlur stdDeviation="9.45312"/>
<feComposite in2="hardAlpha" operator="out"/>
<feColorMatrix type="matrix" values="0 0 0 0 0.191667 0 0 0 0 0.612 0 0 0 0 1 0 0 0 0.67 0"/>
<feBlend mode="normal" in2="BackgroundImageFix" result="effect1_dropShadow_24_170"/>
<feBlend mode="normal" in="SourceGraphic" in2="effect1_dropShadow_24_170" result="shape"/>
</filter>
</defs>
</svg>
